<svg xmlns="http://www.w3.org/2000/svg" version="1.1" xmlns:xlink="http://www.w3.org/1999/xlink" width="512" height="512" x="0" y="0" viewBox="0 0 512 512" style="enable-background:new 0 0 512 512" xml:space="preserve" class=""><g transform="matrix(1.02,0,0,1.02,-5.12000635147092,-5.119980354309064)"><path d="m398.891 322.327-19.345-7.446a127.183 127.183 0 0 0-12.248-29.545l8.42-18.956a8 8 0 0 0-1.655-8.904l-9.85-9.85c-4.858-43.731-34.917-78.938-74.835-91.857 15.335-10.723 25.393-28.498 25.393-48.589 0-32.678-26.585-59.264-59.263-59.264s-59.264 26.586-59.264 59.264c0 20.09 10.058 37.865 25.393 48.588-40.056 12.963-70.189 48.366-74.891 92.304a8.205 8.205 0 0 0-.034.625l-8.778 8.778a8 8 0 0 0-1.654 8.904l8.422 18.961a127.233 127.233 0 0 0-12.246 29.537l-19.349 7.448a8 8 0 0 0-5.126 7.466v37.898a8 8 0 0 0 5.126 7.466l19.345 7.446a127.32 127.32 0 0 0 12.248 29.545l-8.42 18.954a8.002 8.002 0 0 0 1.654 8.905l26.799 26.799a8.004 8.004 0 0 0 8.904 1.654l18.965-8.423a127.298 127.298 0 0 0 29.533 12.245l7.449 19.351a8 8 0 0 0 7.466 5.126h37.898a8 8 0 0 0 7.466-5.126l7.446-19.345a127.262 127.262 0 0 0 29.544-12.248l18.956 8.42a7.996 7.996 0 0 0 8.904-1.655l26.798-26.799a7.999 7.999 0 0 0 1.654-8.903l-8.423-18.964a127.24 127.24 0 0 0 12.246-29.534l19.35-7.448a8 8 0 0 0 5.126-7.466v-37.898a7.995 7.995 0 0 0-5.124-7.464zM212.245 107.181c0-23.855 19.408-43.264 43.264-43.264s43.263 19.408 43.263 43.264-19.407 43.264-43.263 43.264-43.264-19.409-43.264-43.264zm43.262 59.263c40.428 0 75.189 25.574 88.068 62.159a7.975 7.975 0 0 0-5.214.42l-18.963 8.423a127.226 127.226 0 0 0-29.535-12.245l-7.448-19.351a8 8 0 0 0-7.466-5.126h-37.897a8 8 0 0 0-7.466 5.126l-7.448 19.351a127.208 127.208 0 0 0-29.535 12.245l-18.964-8.423c-2.051-.912-4.331-.882-6.321-.052 12.775-36.779 47.627-62.527 88.189-62.527zm132.51 195.754-18.076 6.958a7.999 7.999 0 0 0-4.908 5.613 111.331 111.331 0 0 1-13.537 32.649 8.002 8.002 0 0 0-.499 7.441l7.869 17.718-19.029 19.03-17.711-7.867a8.007 8.007 0 0 0-7.442.5 111.308 111.308 0 0 1-32.656 13.539 7.996 7.996 0 0 0-5.614 4.908l-6.956 18.071h-26.912l-6.959-18.077a7.997 7.997 0 0 0-5.613-4.908 111.339 111.339 0 0 1-32.648-13.536 7.994 7.994 0 0 0-7.441-.499l-17.719 7.869-19.03-19.03L161 414.869a8.003 8.003 0 0 0-.5-7.443 111.355 111.355 0 0 1-13.539-32.658 7.997 7.997 0 0 0-4.908-5.613l-18.071-6.956v-26.912l18.075-6.958a7.997 7.997 0 0 0 4.908-5.613 111.35 111.35 0 0 1 13.536-32.651 7.999 7.999 0 0 0 .5-7.441l-7.868-17.716 19.03-19.03 17.718 7.869a7.996 7.996 0 0 0 7.441-.499 111.319 111.319 0 0 1 32.648-13.536 7.996 7.996 0 0 0 5.614-4.908l6.959-18.077h26.911l6.958 18.077a7.996 7.996 0 0 0 5.614 4.908 111.31 111.31 0 0 1 32.648 13.535 8 8 0 0 0 7.441.5l17.718-7.869 19.03 19.029L351 282.616a8.001 8.001 0 0 0 .5 7.442 111.3 111.3 0 0 1 13.538 32.657 7.996 7.996 0 0 0 4.908 5.614l18.071 6.956zm-132.243-97.102c-45.417 0-82.367 36.95-82.367 82.368 0 45.417 36.95 82.367 82.367 82.367 45.419 0 82.369-36.95 82.369-82.367 0-45.418-36.95-82.368-82.369-82.368zm0 148.735c-36.595 0-66.367-29.772-66.367-66.367 0-36.596 29.772-66.368 66.367-66.368 36.596 0 66.369 29.772 66.369 66.368 0 36.595-29.773 66.367-66.369 66.367zm18.974-103.784-30.311 30.312-7.636-7.637c-8.235-8.235-21.635-8.233-29.868 0-3.979 3.979-6.17 9.283-6.17 14.935s2.191 10.955 6.17 14.933l20.407 20.408c5.312 5.312 11.68 8.005 17.8 8.005 5.295 0 10.406-2.016 14.488-6.098l44.988-44.988c8.234-8.235 8.234-21.634-.001-29.869-8.234-8.234-21.631-8.234-29.867-.001zm18.555 11.315a5.078 5.078 0 0 1 1.483 3.619 5.076 5.076 0 0 1-1.484 3.62l-44.988 44.988c-3.595 3.601-8.305-.551-9.66-1.906l-20.407-20.408a5.078 5.078 0 0 1-1.483-3.619c0-1.378.527-2.664 1.484-3.62.98-.981 2.3-1.472 3.62-1.472 1.319 0 2.639.49 3.619 1.472l13.293 13.293a8.003 8.003 0 0 0 11.314 0l35.967-35.968c1.965-1.961 5.281-1.961 7.242.001zM59.347 129.153l21.067 16.933-7.092 26.084c-1.129 4.156.394 8.477 3.878 11.008a10.255 10.255 0 0 0 6.035 1.979 10.271 10.271 0 0 0 5.632-1.695l22.614-14.804 22.614 14.804c3.602 2.359 8.183 2.25 11.667-.284 3.484-2.531 5.007-6.853 3.877-11.009l-7.092-26.082 21.067-16.933c3.357-2.698 4.667-7.089 3.335-11.186-1.331-4.097-4.971-6.878-9.271-7.087l-26.997-1.316-9.593-25.269-.001-.001c-1.527-4.021-5.298-6.619-9.606-6.619h-.003c-4.309.001-8.079 2.601-9.604 6.62l-9.593 25.269-26.995 1.316c-4.302.209-7.941 2.99-9.273 7.086s-.023 8.486 3.334 11.186zm37.446-3.79a10.269 10.269 0 0 0 9.116-6.616l5.572-14.678 5.571 14.675a10.265 10.265 0 0 0 9.107 6.618l15.681.765-12.236 9.835a10.271 10.271 0 0 0-3.479 10.706l4.119 15.149-13.137-8.599a10.27 10.27 0 0 0-11.256 0l-13.135 8.598 4.12-15.153a10.275 10.275 0 0 0-3.479-10.7l-12.237-9.836zm-1.751 168.389 21.067-16.933c3.357-2.698 4.667-7.089 3.335-11.186-1.331-4.097-4.971-6.878-9.271-7.087l-26.996-1.315-9.594-25.27-.001-.002c-1.528-4.02-5.299-6.617-9.606-6.617s-8.078 2.598-9.607 6.619l-9.594 25.27-26.994 1.315c-4.302.209-7.941 2.99-9.273 7.086s-.023 8.486 3.334 11.187l21.067 16.933-7.092 26.084c-1.129 4.156.394 8.477 3.878 11.008a10.255 10.255 0 0 0 6.035 1.979 10.271 10.271 0 0 0 5.632-1.695l22.614-14.803 22.614 14.803c3.603 2.358 8.184 2.247 11.668-.285 3.485-2.532 5.006-6.854 3.875-11.008zm-12.943-10.124a10.271 10.271 0 0 0-3.479 10.706l4.118 15.148-13.136-8.598a10.273 10.273 0 0 0-11.255 0l-13.136 8.599 4.12-15.154a10.275 10.275 0 0 0-3.479-10.7l-12.236-9.835 15.68-.765a10.272 10.272 0 0 0 9.107-6.616l5.572-14.678 5.571 14.675a10.273 10.273 0 0 0 9.107 6.619l15.68.765zm421.395-77.617c-1.331-4.098-4.972-6.88-9.272-7.089l-26.997-1.316-9.595-25.27c-1.526-4.021-5.297-6.619-9.605-6.619-4.311 0-8.081 2.599-9.607 6.619l-9.593 25.27-26.997 1.316c-4.302.209-7.942 2.991-9.273 7.089-1.33 4.098-.021 8.487 3.336 11.183l21.067 16.934-7.091 26.083c-1.13 4.155.393 8.477 3.877 11.008 3.485 2.533 8.065 2.643 11.667.284l22.614-14.804 22.614 14.805a10.268 10.268 0 0 0 5.631 1.693 10.25 10.25 0 0 0 6.039-1.98c3.483-2.532 5.004-6.854 3.873-11.007l-7.091-26.082 21.065-16.932c3.358-2.698 4.668-7.088 3.338-11.185zm-60.822-27.995.005.014-.005-.014c-.001-.001-.001-.001 0 0zm23.475 45.987a10.274 10.274 0 0 0-3.479 10.705l4.118 15.149-13.135-8.599a10.275 10.275 0 0 0-11.256 0l-13.135 8.599 4.12-15.153a10.28 10.28 0 0 0-3.479-10.701l-12.236-9.835 15.68-.765a10.273 10.273 0 0 0 9.107-6.615l5.572-14.678 5.572 14.678a10.273 10.273 0 0 0 9.105 6.615l15.681.765zM338.457 66.717l21.067 16.934-7.091 26.083c-1.13 4.155.393 8.477 3.877 11.008a10.252 10.252 0 0 0 6.035 1.979c1.949 0 3.903-.563 5.632-1.695l22.614-14.803 22.614 14.802c3.603 2.361 8.183 2.25 11.667-.282 3.484-2.531 5.007-6.852 3.877-11.01l-7.091-26.081 21.066-16.934c3.357-2.698 4.667-7.089 3.335-11.186-1.331-4.097-4.971-6.878-9.271-7.087l-26.997-1.315-9.593-25.27-.001-.002c-1.528-4.02-5.299-6.617-9.606-6.617s-8.078 2.598-9.607 6.619l-9.593 25.27-26.995 1.315c-4.302.209-7.941 2.99-9.273 7.086s-.024 8.486 3.334 11.186zm37.455-3.79a10.273 10.273 0 0 0 9.107-6.615l5.572-14.679 5.572 14.679a10.273 10.273 0 0 0 9.106 6.615l15.681.765-12.236 9.835a10.27 10.27 0 0 0-3.479 10.705l4.119 15.149-13.137-8.599a10.268 10.268 0 0 0-11.255 0l-13.135 8.599 4.119-15.153a10.28 10.28 0 0 0-3.479-10.701l-12.236-9.835z" fill="#ffff" opacity="1" data-original="#ffff" class=""></path></g></svg>