<svg xmlns="http://www.w3.org/2000/svg" version="1.1" xmlns:xlink="http://www.w3.org/1999/xlink" width="512" height="512" x="0" y="0" viewBox="0 0 512.152 512.152" style="enable-background:new 0 0 512 512" xml:space="preserve" class=""><g><path d="M243.545 100.53h248.029c7.18 0 13 5.82 13 13v284.623c0 7.18-5.82 13-13 13H160.358c-7.18 0-13-5.82-13-13V266.057" style="stroke-width:15;stroke-linecap:round;stroke-linejoin:round;stroke-miterlimit:10;" fill="none" stroke="#ffff" stroke-width="15" stroke-linecap="round" stroke-linejoin="round" stroke-miterlimit="10" data-original="#ffff" class=""></path><path d="M473.512 189.695v190.396H178.421V248.123M243.545 131.635h229.967v25.374" style="stroke-width:15;stroke-linecap:round;stroke-linejoin:round;stroke-miterlimit:10;" fill="none" stroke="#ffff" stroke-width="15" stroke-linecap="round" stroke-linejoin="round" stroke-miterlimit="10" data-original="#ffff" class=""></path><path d="M433.691 301.122v-90.561l-78.428-45.281-78.428 45.281v90.561l78.428 45.281z" style="stroke-width:15;stroke-linecap:round;stroke-linejoin:round;stroke-miterlimit:10;" fill="none" stroke="#ffff" stroke-width="15" stroke-linecap="round" stroke-linejoin="round" stroke-miterlimit="10" data-original="#ffff" class=""></path><path d="m407.887 283.71-39.506-22.809M329.459 268.225l-39.506 22.809" style="stroke-width:15;stroke-linecap:round;stroke-linejoin:round;stroke-dasharray:0.837,29.2957;" fill="none" stroke="#ffff" stroke-width="15" stroke-linecap="round" stroke-linejoin="round" stroke-dasharray="0.837,29.2957" data-original="#ffff" class=""></path><path d="m276.835 210.561 78.428 45.281 78.428-45.281" style="stroke-width:15;stroke-linecap:round;stroke-linejoin:round;stroke-miterlimit:10;" fill="none" stroke="#ffff" stroke-width="15" stroke-linecap="round" stroke-linejoin="round" stroke-miterlimit="10" data-original="#ffff" class=""></path><path d="M355.263 226.046v-45.618" style="stroke-width:15;stroke-linecap:round;stroke-linejoin:round;stroke-dasharray:0.837,29.2957;" fill="none" stroke="#ffff" stroke-width="15" stroke-linecap="round" stroke-linejoin="round" stroke-dasharray="0.837,29.2957" data-original="#ffff" class=""></path><path d="M355.263 165.78v-.5M355.263 346.403v-90.076M263.842 473.59l10.338-62.437M377.752 411.153l10.339 62.437M339.353 504.652h-97.628a7 7 0 0 1-7-7V480.59a7 7 0 0 1 7-7h168.483a7 7 0 0 1 7 7v17.062a7 7 0 0 1-7 7H372.04M209.483 271.529h31.062M209.483 302.591h31.062M209.483 333.654h19.268M37.367 57.553 7.578 74.752v134.503l116.484 67.252 116.483-67.252V74.752L124.062 7.5 65.757 41.162" style="stroke-width:15;stroke-linecap:round;stroke-linejoin:round;stroke-miterlimit:10;" fill="none" stroke="#ffff" stroke-width="15" stroke-linecap="round" stroke-linejoin="round" stroke-miterlimit="10" data-original="#ffff" class=""></path><path d="m7.578 74.752 116.484 67.251 116.483-67.251M124.062 142.003v134.504M216.832 27.418h76.369c13.807 0 25 11.193 25 25v26.525M23.109 248.317v44.806c0 13.807 11.193 25 25 25h70.9" style="stroke-width:15;stroke-linecap:round;stroke-linejoin:round;stroke-miterlimit:10;" fill="none" stroke="#ffff" stroke-width="15" stroke-linecap="round" stroke-linejoin="round" stroke-miterlimit="10" data-original="#ffff" class=""></path></g></svg>