<svg xmlns="http://www.w3.org/2000/svg" version="1.1" xmlns:xlink="http://www.w3.org/1999/xlink" width="512" height="512" x="0" y="0" viewBox="0 0 512 512" style="enable-background:new 0 0 512 512" xml:space="preserve" class=""><g transform="matrix(1.02,0,0,1.02,-5.119998760223353,-5.120010070800674)"><path d="M141.625 248.253c11.122 0 20.17-9.048 20.17-20.17a20.06 20.06 0 0 0-1.527-7.699c5.302-3.638 8.786-9.741 8.786-16.643 0-2.475-.448-4.848-1.268-7.04 5.872-3.53 9.808-9.964 9.809-17.301 0-6.188-2.801-11.733-7.202-15.436a20.049 20.049 0 0 0 2.074-8.905c0-11.122-9.048-20.17-20.17-20.17h-30.319c-.628 0-1.246.038-1.86.094.391-1.329.684-2.648.862-3.942.05-.362.075-.728.075-1.093v-19.811c0-21.299-17.33-38.627-38.631-38.627a8 8 0 0 0-8 8v25.539c0 13.835-10.919 21.532-23.563 30.445a434.43 434.43 0 0 0-5.054 3.614H15.998a8 8 0 0 0-8 8v84.125a8 8 0 0 0 8 8H45.32c11.413 9.97 22.797 13.215 35.917 13.215 10.157 0 21.354-1.941 34.411-4.206l2.298-.397c1.303.266 2.652.406 4.032.406h19.647zm0-16h-19.646c-2.26 0-4.17-1.91-4.17-4.172 0-1.484.771-2.478 1.231-2.938s1.454-1.231 2.939-1.231H141.626c2.26 0 4.17 1.91 4.17 4.171s-1.91 4.17-4.171 4.17zm7.26-24.341h-26.906c-2.26 0-4.17-1.91-4.17-4.17 0-2.261 1.91-4.171 4.171-4.171h26.905c2.26 0 4.17 1.909 4.17 4.17s-1.91 4.171-4.17 4.171zm12.71-28.512c0 2.261-1.91 4.171-4.17 4.171h-40.573c-2.261 0-4.171-1.909-4.171-4.17s1.91-4.171 4.171-4.171h40.573c2.26 0 4.17 1.911 4.17 4.17zm-9.297-28.51c2.26 0 4.17 1.909 4.17 4.17s-1.91 4.171-4.17 4.171H121.98c-2.261 0-4.17-1.91-4.17-4.171s1.91-4.17 4.17-4.17zm-128.3 4.22h16.434c.032 38.887.034 58.664.024 68.125H23.998zm32.451 72.591c.001-.522.001-50.528-.02-76.538a541.88 541.88 0 0 1 3.651-2.59c13.52-9.53 30.345-21.391 30.345-43.522V88.972c8.542 3.238 14.631 11.505 14.631 21.167v19.163c-.439 2.238-2.129 6.559-6.153 10.585a8 8 0 0 0-.942 10.176c3.185 4.65 4.285 8.876 3.362 12.917-1.891 8.281-11.634 14.654-15.735 17.011a7.999 7.999 0 0 0-2.952 10.921 7.997 7.997 0 0 0 10.922 2.953 69.133 69.133 0 0 0 6.091-3.941 20.341 20.341 0 0 0 4.233 4.916 20.041 20.041 0 0 0-2.074 8.904c0 4.567 1.527 8.786 4.097 12.171a19.982 19.982 0 0 0-4.096 12.169c0 2.129.337 4.179.95 6.107-22.476 3.599-34.275 3.675-46.31-6.49zm283.831-64.317c4.738-45.011 45.212-77.77 90.224-73.037a81.932 81.932 0 0 1 26.228 7.282c-1.062-4.027 1.152-8.247 5.156-9.607 4.182-1.418 8.727.817 10.147 5.002l7.19 21.168a8.001 8.001 0 0 1-6.892 10.544l-22.275 1.907a7.999 7.999 0 0 1-8.653-7.288c-.336-3.919 2.217-7.413 5.887-8.4a66.105 66.105 0 0 0-18.463-4.696c-36.237-3.823-68.822 22.564-72.637 58.801-1.48 14.058 1.486 27.929 8.578 40.111a7.998 7.998 0 0 1-6.907 12.025 7.995 7.995 0 0 1-6.921-3.977c-8.813-15.14-12.5-32.372-10.662-49.835zm163.261 17.186c-2.295 21.804-12.944 41.409-29.985 55.205-14.753 11.942-32.77 18.292-51.489 18.293-2.903 0-5.822-.152-8.75-.461a82.005 82.005 0 0 1-26.227-7.279c1.061 4.027-1.154 8.245-5.157 9.605a8.011 8.011 0 0 1-2.574.427 8.003 8.003 0 0 1-7.574-5.429l-7.19-21.169a8 8 0 0 1 6.893-10.544l22.275-1.906c4.409-.37 8.276 2.887 8.653 7.288.336 3.92-2.218 7.414-5.889 8.4a66.09 66.09 0 0 0 18.465 4.694c17.551 1.848 34.777-3.251 48.497-14.356s22.292-26.89 24.14-44.444c1.48-14.061-1.486-27.93-8.578-40.11a8 8 0 0 1 2.888-10.938 8 8 0 0 1 10.939 2.888c8.815 15.138 12.502 32.371 10.663 49.836zm-247.543-30.697c25.784 0 46.76-20.977 46.76-46.761 0-25.783-20.977-46.76-46.76-46.76s-46.76 20.977-46.76 46.76c0 25.784 20.977 46.761 46.76 46.761zm0-77.52c16.961 0 30.76 13.799 30.76 30.76 0 16.962-13.799 30.761-30.76 30.761s-30.76-13.799-30.76-30.761 13.799-30.76 30.76-30.76zm-84.985 49.338 9.804 3.773a77.83 77.83 0 0 0 6.217 14.998l-4.267 9.607a8 8 0 0 0 1.654 8.904l15.716 15.715a8.002 8.002 0 0 0 8.904 1.654l9.612-4.269a77.911 77.911 0 0 0 14.992 6.215l3.775 9.809a8 8 0 0 0 7.466 5.126h22.225a8 8 0 0 0 7.466-5.126l3.774-9.805a77.793 77.793 0 0 0 14.998-6.217l9.607 4.267a7.996 7.996 0 0 0 8.904-1.655l15.715-15.716a8 8 0 0 0 1.655-8.903l-4.269-9.611a77.904 77.904 0 0 0 6.216-14.992l9.807-3.775a7.998 7.998 0 0 0 5.126-7.466V92a8 8 0 0 0-5.126-7.466l-9.804-3.773a77.864 77.864 0 0 0-6.217-14.999l4.267-9.607a8 8 0 0 0-1.654-8.904L311.86 31.535a8.004 8.004 0 0 0-8.904-1.654l-9.612 4.269a77.885 77.885 0 0 0-14.992-6.215l-3.775-9.809A8.001 8.001 0 0 0 267.111 13h-22.225a8 8 0 0 0-7.466 5.126l-3.775 9.809a77.911 77.911 0 0 0-14.992 6.215l-9.612-4.269a8 8 0 0 0-8.904 1.654l-15.716 15.716a8 8 0 0 0-1.654 8.904l4.268 9.61a77.843 77.843 0 0 0-6.216 14.994l-9.807 3.774a8 8 0 0 0-5.126 7.466v22.226a7.999 7.999 0 0 0 5.127 7.466zm10.873-24.198 8.48-3.265a8.002 8.002 0 0 0 4.909-5.613 61.949 61.949 0 0 1 7.537-18.179 7.998 7.998 0 0 0 .5-7.442l-3.692-8.313 7.948-7.947 8.314 3.692a7.999 7.999 0 0 0 7.441-.499 61.994 61.994 0 0 1 18.179-7.537 7.997 7.997 0 0 0 5.613-4.908L250.379 29h11.239l3.265 8.481a7.997 7.997 0 0 0 5.613 4.908 61.966 61.966 0 0 1 18.178 7.537 8.001 8.001 0 0 0 7.441.499l8.314-3.692 7.947 7.946-3.691 8.311a7.998 7.998 0 0 0 .5 7.442 61.963 61.963 0 0 1 7.538 18.183 8 8 0 0 0 4.909 5.614l8.478 3.264v11.238l-8.48 3.265a8 8 0 0 0-4.909 5.613 61.978 61.978 0 0 1-7.537 18.179 8.002 8.002 0 0 0-.5 7.441l3.693 8.314-7.948 7.947-8.31-3.69a7.995 7.995 0 0 0-7.442.5 61.915 61.915 0 0 1-18.182 7.536 8 8 0 0 0-5.615 4.909l-3.263 8.479h-11.24l-3.265-8.481a7.997 7.997 0 0 0-5.613-4.908 61.977 61.977 0 0 1-18.178-7.537 7.996 7.996 0 0 0-7.441-.499l-8.314 3.692-7.948-7.946 3.691-8.311a7.998 7.998 0 0 0-.5-7.442 61.984 61.984 0 0 1-7.538-18.183 7.999 7.999 0 0 0-4.91-5.614l-8.477-3.263V97.493zm74.112 105.574a8 8 0 0 1 8 8v41.427a8 8 0 0 1-16 0v-41.427a8 8 0 0 1 8-8zm203.461-56.796a8 8 0 0 1-.548 11.3l-44.802 40.659a7.974 7.974 0 0 1-5.375 2.076 7.98 7.98 0 0 1-5.658-2.343l-18.446-18.446a8 8 0 0 1 11.313-11.314L409 181.261l39.158-35.537a7.999 7.999 0 0 1 11.301.547zm-124.83 184.485c-4.141-3.842-6.422-5.958-7.406-7.662s-1.676-4.737-2.933-10.244a815.887 815.887 0 0 0-1.15-4.99c-2.591-11.064-11.956-18.923-23.302-19.553-1.901-.106-3.595-.19-5.116-.267-5.64-.28-8.747-.436-10.596-1.108s-4.329-2.552-8.831-5.962a801.444 801.444 0 0 0-4.088-3.084c-9.097-6.81-21.32-6.81-30.418 0a869.883 869.883 0 0 0-4.088 3.083c-4.502 3.411-6.982 5.29-8.831 5.963s-4.956.828-10.597 1.108c-1.521.076-3.214.16-5.115.267-11.346.63-20.711 8.488-23.302 19.552a832.383 832.383 0 0 0-1.15 4.991c-1.256 5.507-1.948 8.54-2.933 10.244-.984 1.704-3.265 3.82-7.406 7.662a876.103 876.103 0 0 0-3.746 3.49c-8.286 7.776-10.408 19.814-5.282 29.956a889.387 889.387 0 0 0 2.327 4.561c2.577 5.026 3.997 7.795 4.338 9.733.342 1.938-.045 5.024-.748 10.629-.189 1.511-.4 3.192-.626 5.083-1.348 11.283 4.764 21.869 15.209 26.342 1.262.541 2.423 1.032 3.501 1.488l-21.236 45.611a8 8 0 0 0 8.629 11.258l22.922-4.006 11.69 20.119a8 8 0 0 0 14.17-.643l21.76-46.739c2.637-.769 4.406-1.181 5.722-1.181 1.968 0 4.94.917 10.337 2.582l1.009.312 15.481 35.942a7.998 7.998 0 0 0 14.145 1.054l12.27-19.771 22.794 4.668a7.991 7.991 0 0 0 7.81-2.787 8.002 8.002 0 0 0 1.143-8.214l-17.221-39.983c10.066-4.622 15.921-14.995 14.599-26.052-.226-1.891-.437-3.572-.626-5.083-.703-5.604-1.09-8.691-.748-10.629s1.761-4.707 4.339-9.732c.694-1.354 1.468-2.863 2.327-4.562 5.126-10.142 3.004-22.181-5.282-29.956-1.387-1.303-2.63-2.455-3.745-3.49zM220.48 473.729l-6.792-11.688a8.004 8.004 0 0 0-8.294-3.861l-13.316 2.327 13.899-29.852c.934 1.347 2.029 3.038 3.416 5.185.826 1.278 1.745 2.702 2.787 4.296 4.325 6.614 11.199 10.638 18.643 11.377zm86.508-23.946a7.995 7.995 0 0 0-8.402 3.618l-7.127 11.486-6.092-14.144c5.786-1.596 10.951-5.259 14.45-10.608 1.042-1.594 1.962-3.019 2.788-4.298 3.063-4.744 4.751-7.357 6.258-8.622.108-.091.24-.181.362-.272l11.005 25.551zm22.39-92.8c-.843 1.668-1.603 3.149-2.285 4.479-6.787 13.234-7.08 14.897-5.229 29.654.186 1.482.394 3.135.615 4.99.506 4.235-1.7 8.057-5.621 9.736a871.55 871.55 0 0 1-4.629 1.962c-13.705 5.775-14.999 6.861-23.066 19.354a867.94 867.94 0 0 1-2.737 4.219c-2.334 3.569-6.482 5.078-10.564 3.845-1.79-.54-3.38-1.031-4.808-1.472-14.211-4.385-15.899-4.385-30.109 0-1.428.44-3.019.932-4.809 1.472-4.085 1.234-8.23-.275-10.564-3.845a824.752 824.752 0 0 1-2.737-4.218c-8.067-12.493-9.36-13.579-23.063-19.354-1.378-.581-2.913-1.228-4.633-1.965-3.921-1.679-6.127-5.5-5.621-9.735.222-1.855.429-3.508.615-4.99 1.851-14.757 1.558-16.42-5.229-29.654a794.463 794.463 0 0 1-2.284-4.479c-1.924-3.807-1.158-8.152 1.952-11.071 1.363-1.279 2.583-2.41 3.679-3.427 10.903-10.115 11.748-11.577 15.055-26.076.333-1.458.703-3.08 1.129-4.901.973-4.153 4.353-6.989 8.612-7.227a796.65 796.65 0 0 1 5.023-.261c14.853-.74 16.439-1.317 28.294-10.299 1.191-.902 2.518-1.907 4.014-3.027 1.708-1.278 3.664-1.917 5.621-1.917s3.914.639 5.621 1.917c1.497 1.12 2.823 2.126 4.015 3.028 11.854 8.98 13.44 9.558 28.293 10.298 1.493.074 3.156.157 5.023.261 4.259.237 7.639 3.073 8.612 7.228.426 1.82.797 3.442 1.129 4.9 3.308 14.499 4.152 15.961 15.055 26.076 1.096 1.017 2.316 2.147 3.679 3.428 3.11 2.919 3.876 7.265 1.952 11.071zm-73.38-51.417c-31.233 0-56.644 25.411-56.644 56.645s25.411 56.645 56.644 56.645c31.234 0 56.645-25.411 56.645-56.645s-25.411-56.645-56.645-56.645zm0 97.289c-22.411 0-40.644-18.233-40.644-40.645s18.233-40.645 40.644-40.645c22.412 0 40.645 18.233 40.645 40.645s-18.233 40.645-40.645 40.645zm-85.137-101.781-29.294-29.294a8 8 0 0 1 11.313-11.314l29.294 29.294a8 8 0 0 1-11.313 11.314zm199.568-40.608a8 8 0 0 1 0 11.314l-29.293 29.294c-1.562 1.562-3.609 2.343-5.657 2.343s-4.095-.781-5.657-2.343a8 8 0 0 1 0-11.314l29.293-29.294a8.003 8.003 0 0 1 11.314 0zm-84.507 80.94a8 8 0 0 1-.547 11.3l-34.001 30.857a7.974 7.974 0 0 1-5.375 2.076c-2.052 0-4.1-.785-5.658-2.344l-13.999-14a8 8 0 1 1 11.314-11.312l8.609 8.61 28.357-25.735a8 8 0 0 1 11.3.548z" fill="#ffff" opacity="1" data-original="#ffff" class=""></path></g></svg>