<svg xmlns="http://www.w3.org/2000/svg" version="1.1" xmlns:xlink="http://www.w3.org/1999/xlink" width="512" height="512" x="0" y="0" viewBox="0 0 68 68" style="enable-background:new 0 0 512 512" xml:space="preserve" class=""><g transform="matrix(1.04,0,0,1.04,-1.3599999999999923,-1.3593215799331588)"><path d="M44.6 56.1c.6 0 1-.4 1-1s-.4-1-1-1H23.4c-.6 0-1 .4-1 1s.4 1 1 1zM46.6 58.5H21.4c-.6 0-1 .4-1 1s.4 1 1 1h6.1C28 63.6 30.7 66 34 66s6-2.4 6.5-5.6h6.1c.6 0 1-.4 1-1s-.4-.9-1-.9zM34 64c-2.2 0-4-1.5-4.4-3.6h8.9C38 62.5 36.2 64 34 64zM44.7 13.3l-2.8 1.2c-1.3-1.2-2.8-2.1-4.5-2.6l-.4-3c0-.5-.4-.9-.9-.9h-4.2c-.5 0-.9.4-1 .9l-.4 3c-1.7.5-3.2 1.4-4.5 2.6l-2.7-1.2c-.5-.2-1 0-1.3.4l-2.1 3.7c-.3.4-.1 1 .3 1.3l2.4 1.8c-.4 1.7-.4 3.5 0 5.2l-2.4 1.8c-.4.3-.5.9-.3 1.3l2.1 3.7c.3.4.8.6 1.3.4l2.7-1.2c1.3 1.2 2.8 2.1 4.5 2.6l.4 3c.1.5.5.9 1 .9h4.2c.5 0 .9-.4 1-.9l.4-3c1.7-.5 3.2-1.4 4.5-2.6l2.8 1.2c.5.2 1 0 1.3-.4l2.1-3.7c.3-.4.1-1-.3-1.3l-2.4-1.8c.4-1.7.4-3.5 0-5.2l2.4-1.8c.4-.3.5-.9.3-1.3l-2.1-3.7c-.4-.5-1-.6-1.4-.4zm-1 5.9c-.3.3-.5.7-.4 1.1.5 1.7.5 3.7 0 5.4-.1.4 0 .8.4 1.1l2.2 1.7-1.2 2.1-2.6-1.1c-.4-.2-.8-.1-1.1.2-1.3 1.3-2.9 2.3-4.7 2.7-.4.1-.7.4-.8.9l-.3 2.7h-2.4l-.3-2.8c0-.4-.4-.8-.8-.9-1.8-.3-3.4-1.3-4.7-2.6-.3-.3-.7-.4-1.1-.2l-2.5 1.1-1.2-2.1 2.2-1.7c.3-.3.5-.7.4-1.1-.5-1.7-.5-3.6 0-5.4.1-.4 0-.8-.4-1.1l-2.2-1.7 1.2-2.1 2.5 1.1c.4.2.8.1 1.1-.2 1.3-1.3 2.9-2.3 4.7-2.7.4-.1.7-.4.8-.9l.3-2.8h2.4l.3 2.8c0 .4.4.8.8.9 1.8.4 3.4 1.4 4.7 2.7.3.3.7.4 1.1.2l2.6-1.1 1.2 2.1z" fill="#ffff" opacity="1" data-original="#ffff" class=""></path><path d="M34 16.8c-3.5 0-6.3 2.8-6.3 6.3s2.8 6.3 6.3 6.3c3.4 0 6.3-2.8 6.3-6.3s-2.8-6.3-6.3-6.3zm0 10.5c-2.3 0-4.3-1.9-4.3-4.3 0-2.3 1.9-4.3 4.3-4.3 2.3 0 4.3 1.9 4.3 4.3s-2 4.3-4.3 4.3z" fill="#ffff" opacity="1" data-original="#ffff" class=""></path><path d="M62 2c-2.2 0-4 1.8-4 4 0 1.9 1.3 3.4 3 3.9v4.3c0 .6-.4 1-1 1h-6.6C50.3 7.9 43.1 2.5 35.2 2c-5.3-.3-10.4 1.4-14.5 4.7H8c-1.7 0-3 1.3-3 3V14c-1.7.4-3 2-3 3.9 0 2.2 1.8 4 4 4s4-1.8 4-4c0-1.9-1.3-3.4-3-3.9V9.8c0-.6.4-1 1-1h10.5c-3.7 3.9-5.7 9-5.7 14.4 0 11.9 7.1 12.3 9.1 23h-11c-.6 0-1-.4-1-1v-3.3c1.7-.4 3-2 3-3.9 0-2.2-1.8-4-4-4s-4 1.8-4 4c0 1.9 1.3 3.4 3 3.9v3.3c0 1.7 1.3 3 3 3h11.3c.1.9.2 1.7.2 2.6 0 .6.4 1 1 1h21.2c.6 0 1-.4 1-1 0-.2-.1-1.8.5-4.6h4.2c.6 0 1-.4 1-1s-.4-1-1-1h-3.7c2.7-8.9 9-10.7 8.6-21.8-.1-1.8-.4-3.6-.9-5.3H60c1.7 0 3-1.3 3-3V9.9c1.7-.4 3-2 3-3.9 0-2.2-1.8-4-4-4zM8 17.9c0 1.1-.9 2-2 2s-2-.9-2-2 .9-2 2-2 2 .9 2 2zM6.9 38c0-1.1.9-2 2-2s2 .9 2 2-.9 2-2 2-2-.9-2-2zm36.7 11.8h-5.5v-5.2c0-.6-.4-1-1-1s-1 .4-1 1v5.2h-4.2v-7.2c0-.6-.4-1-1-1s-1 .4-1 1v7.2h-5.5c-.5-14.3-9.6-14.4-9.6-26.6C14.8 12.2 24 3.4 35 4c9.3.5 17.8 9.1 18.1 18.5.5 12.2-9 13.5-9.5 27.3zM62 8c-1.1 0-2-.9-2-2s.9-2 2-2 2 .9 2 2-.9 2-2 2zM60.6 51.5v-4.3c0-1.7-1.3-3-3-3H55c-.6 0-1 .4-1 1s.4 1 1 1h2.6c.6 0 1 .4 1 1v4.3c-1.7.4-3 2-3 3.9 0 2.2 1.8 4 4 4s4-1.8 4-4c0-1.9-1.3-3.5-3-3.9zm-1 5.8c-1.1 0-2-.9-2-2s.9-2 2-2 2 .9 2 2-.9 2-2 2z" fill="#ffff" opacity="1" data-original="#ffff" class=""></path></g></svg>