<svg xmlns="http://www.w3.org/2000/svg" version="1.1" xmlns:xlink="http://www.w3.org/1999/xlink" width="512" height="512" x="0" y="0" viewBox="0 0 64 64" style="enable-background:new 0 0 512 512" xml:space="preserve" class=""><g transform="matrix(1.06ffff03,0,0,1.06ffff03,-1.92ffff88,-1.9799999999999969)"><path d="M19 16h2v2h-2z" fill="#ffff" opacity="1" data-original="#ffff" class=""></path><path d="M59 47h-2v13h-2V38h2v3h2v-4a1 1 0 0 0-1-1h-4a1 1 0 0 0-1 1v3h-5v-3a1 1 0 0 0-1-1h-4a1 1 0 0 0-1 1v3h-5v-3a1 1 0 0 0-1-1h-4a1 1 0 0 0-1 1v11h2V38h2v22h-2V49.968h-2V60h-3v-3a1 1 0 0 0-1-1h-3V22h1a1 1 0 0 0 1-1h18v1.586L38.586 28H36a1 1 0 0 0-1 1v4a1 1 0 0 0 1 1h18a1 1 0 0 0 1-1v-4a1 1 0 0 0-1-1h-2.586L46 22.586V21h11a.974.974 0 0 0 .28-.042h.01c.017 0 .031-.017.047-.023a.97.97 0 0 0 .212-.1 1 1 0 0 0 .081-.065.983.983 0 0 0 .135-.131 1.062 1.062 0 0 0 .067-.094c.016-.024.036-.043.05-.068s.021-.062.034-.092a1.08 1.08 0 0 0 .04-.108.99.99 0 0 0 .033-.2c0-.024.011-.046.011-.07V14c0-.024-.012-.044-.014-.068a.917.917 0 0 0-.041-.2 1.007 1.007 0 0 0-.059-.173 1.029 1.029 0 0 0-.106-.157 1.067 1.067 0 0 0-.125-.143 1.008 1.008 0 0 0-.152-.1.927.927 0 0 0-.184-.091c-.023-.008-.04-.025-.063-.031l-34-9a1.014 1.014 0 0 0-.11-.006A1.015 1.015 0 0 0 23 4h-6c-.031 0-.058.014-.088.016a1.072 1.072 0 0 0-.147.024.865.865 0 0 0-.1.022.951.951 0 0 0-.122.065.836.836 0 0 0-.083.032l-14 9c-.006 0-.008.01-.014.014a.894.894 0 0 0-.076.062.968.968 0 0 0-.133.131c-.016.02-.035.037-.049.057s-.018.033-.029.05-.029.035-.04.055-.021.062-.034.093a.908.908 0 0 0-.04.107c0 .02-.016.038-.02.058v.014a1.209 1.209 0 0 0-.012.135c0 .024-.011.046-.011.07v6a1 1 0 0 0 1 1H4v3a1 1 0 0 0 1 1h4a1 1 0 0 0 1-1V21h4a1 1 0 0 0 1 1h1v34h-3a1 1 0 0 0-1 1v3H2v2h60v-2h-3Zm-6-15H37v-2h16Zm-11.586-4L45 24.414 48.586 28ZM21.2 25 18 27.132v-4.264Zm.8 22.132L18.8 45l3.2-2.132Zm0-8L18.8 37l3.2-2.132Zm0-12.264v4.264L18.8 29Zm-4 4L21.2 33 18 35.132Zm0 8L21.2 41 18 43.132Zm0 12.264v-4.264L21.2 49Zm4-.264v4.264L18.8 53Zm0-27.736L20.3 22H22ZM23 20h-7v-6h8v6ZM9 19h-.132L11 15.8l2.132 3.2Zm-5 0v-1.7L5.132 19H4Zm38.868 0L45 15.8l2.132 3.2ZM17.716 7.337 21.8 12h-4.667ZM26 15h1.132L26 16.7Zm3 .8 2.132 3.2h-4.264Zm1.868-.8h4.264L33 18.2Zm6.132.8 2.132 3.2h-4.264Zm1.868-.8h4.264L41 18.2Zm8 0h4.264L49 18.2Zm6.132.8 2.132 3.2h-4.264Zm1.868-.8H56v1.7ZM45 13H26a1 1 0 0 0-1-1h-.117l-.707-5.654L49.314 13ZM22.6 9.884 19.2 6h2.913ZM15.117 12H15a1 1 0 0 0-1 1H6.405l9.338-6ZM4.868 15h4.264L7 18.2Zm8 0H14v1.7ZM8 23H6v-2h2Zm10 31.868L19.7 56H18ZM14 60v-2h12v2Zm23-4v-2h16v2H37Zm0-10h5v6h-5Zm16 0v6h-5v-6Zm-7 6h-2v-6h2Zm7 6v2h-5v-2Zm-9-20h2v2h-2Zm-1 4h10v2H37v-2Zm-6 16h5v2h-5Zm7 2v-2h2v2Z" fill="#ffff" opacity="1" data-original="#ffff" class=""></path><path d="M57 43h2v2h-2z" fill="#ffff" opacity="1" data-original="#ffff" class=""></path></g></svg>