<svg xmlns="http://www.w3.org/2000/svg" version="1.1" xmlns:xlink="http://www.w3.org/1999/xlink" width="512" height="512" x="0" y="0" viewBox="0 0 500 500" style="enable-background:new 0 0 512 512" xml:space="preserve" class=""><g transform="matrix(1.19ffffffff08,0,0,1.19ffffffff08,-47.50000434875511,-47.500038414001665)"><path fill-rule="evenodd" d="M295.286 242.519v-13.591a6.347 6.347 0 0 1 6.344-6.344 6.341 6.341 0 0 1 6.344 6.344v13.591a6.336 6.336 0 0 1-6.344 6.338 6.342 6.342 0 0 1-6.344-6.338zm-31.425 0v-13.591c0-3.501 2.843-6.344 6.344-6.344s6.344 2.843 6.344 6.344v13.591a6.342 6.342 0 0 1-6.344 6.338 6.342 6.342 0 0 1-6.344-6.338zm31.425-45.016v-13.591a6.347 6.347 0 0 1 6.344-6.344 6.341 6.341 0 0 1 6.344 6.344v13.591a6.337 6.337 0 0 1-6.344 6.339 6.345 6.345 0 0 1-6.344-6.339zm-31.425 0v-13.591c0-3.501 2.843-6.344 6.344-6.344s6.344 2.843 6.344 6.344v13.591a6.344 6.344 0 0 1-12.688 0zm31.425-45.016v-13.591a6.347 6.347 0 0 1 6.344-6.344 6.341 6.341 0 0 1 6.344 6.344v13.591a6.341 6.341 0 0 1-6.344 6.344 6.35 6.35 0 0 1-6.344-6.344zm-31.425 0v-13.591c0-3.501 2.843-6.344 6.344-6.344s6.344 2.843 6.344 6.344v13.591a6.347 6.347 0 0 1-6.344 6.344 6.349 6.349 0 0 1-6.344-6.344zM156.592 67.894c-2.475-2.48-2.475-6.499 0-8.957 24.401-24.321 63.639-24.321 88.039 0 3.998 3.985 1.118 10.817-4.484 10.817a6.336 6.336 0 0 1-4.489-1.86c-19.414-19.393-50.755-19.359-70.093 0a6.35 6.35 0 0 1-8.973 0zm70.878 8.183c-14.81-14.788-38.908-14.788-53.717 0-2.48 2.48-2.48 6.493 0 8.973s6.494 2.48 8.963 0c9.871-9.866 25.921-9.866 35.792 0a6.326 6.326 0 0 0 4.479 1.86c5.586 0 8.499-6.818 4.483-10.833zM126.139 242.925l16.103-14.505 16.114 14.494v40.222H126.14v-40.211zm52.494-68.323h51.553v108.535h-59.147V182.196c-.001-4.19 3.409-7.594 7.594-7.594zm73.817-76.324c-5.286 0-9.577 4.297-9.577 9.583v175.277h86.089V107.86c0-5.286-4.297-9.583-9.583-9.583H252.45zm114.286 94.281c3.928 0 7.124 3.201 7.124 7.124v83.454h-32.216v-90.578zM346.812 393.8c-3.65 3.656-9.593 3.656-13.249 0-5.896-5.892-1.672-15.996 6.622-15.996 8.305 0 12.521 10.11 6.627 15.996zm-60.793 50.077c-3.655 3.65-9.598 3.65-13.254 0-5.884-5.884-1.683-16.001 6.633-16.001 8.324 0 12.515 10.126 6.621 16.001zm-26.648-66.843c0 5.163-4.201 9.369-9.374 9.369-5.163 0-9.369-4.206-9.369-9.369 0-5.168 4.206-9.374 9.369-9.374 5.174 0 9.374 4.206 9.374 9.374zm-38.768 50.842c8.305 0 12.531 10.107 6.632 16.001-5.887 5.883-16.001 1.684-16.001-6.632 0-5.171 4.196-9.369 9.369-9.369zm-60.783-50.072c8.276 0 12.519 10.094 6.617 15.996-3.65 3.656-9.593 3.656-13.249 0-5.893-5.888-1.681-15.996 6.632-15.996zm272.701-94.667h-45.936l.059-9.786h-.101v-73.668c0-10.919-8.888-19.807-19.807-19.807h-25.092V107.86c0-12.282-9.984-22.265-22.265-22.265H252.45c-12.276 0-22.265 9.983-22.265 22.265v54.054h-23.232V96.428a6.341 6.341 0 1 0-12.683 0v65.486h-15.638c-11.181 0-20.277 9.102-20.277 20.282v43.653l-11.87-10.673a6.329 6.329 0 0 0-8.482 0l-22.452 20.202a6.338 6.338 0 0 0-2.095 4.708v43.05H67.473a6.335 6.335 0 0 0-6.338 6.339 6.333 6.333 0 0 0 6.338 6.344H113.5l.289 51.708a6.309 6.309 0 0 0 1.86 4.447l24.745 24.745c-4.489 8.353-3.217 19.01 3.821 26.049 8.602 8.596 22.589 8.606 31.196 0 8.604-8.604 8.604-22.591 0-31.19-6.94-6.937-17.558-8.423-26.054-3.832l-22.901-22.901-.273-49.025h64.721l.695 118.797a6.351 6.351 0 0 0 1.854 4.447l7.728 7.728c-7.863 14.524 2.619 32.5 19.422 32.5a22.034 22.034 0 0 0 15.606-6.445c8.589-8.599 8.589-22.596 0-31.196-6.923-6.923-17.56-8.43-26.054-3.832l-5.89-5.884-.674-116.114h40.067v60.088c-9.085 2.731-15.713 11.17-15.713 21.127 0 12.159 9.893 22.051 22.052 22.051 12.164 0 22.057-9.893 22.057-22.051 0-9.957-6.627-18.395-15.708-21.127V295.82h40.062l-.673 116.114-5.879 5.884c-8.514-4.593-19.136-3.097-26.065 3.832-8.589 8.599-8.589 22.596 0 31.196 13.789 13.78 37.662 4.077 37.662-15.601 0-3.704-.914-7.284-2.629-10.454l7.728-7.728a6.316 6.316 0 0 0 1.849-4.447l.695-118.797h64.732l-.283 49.025-22.901 22.901c-8.488-4.594-19.121-3.101-26.054 3.832-8.599 8.599-8.599 22.586 0 31.19 8.603 8.601 22.595 8.601 31.196 0 7.039-7.039 8.316-17.695 3.821-26.049l24.745-24.745a6.342 6.342 0 0 0 1.865-4.447l.294-51.708h46.01a6.338 6.338 0 0 0 6.344-6.344 6.34 6.34 0 0 0-6.344-6.337z" clip-rule="evenodd" fill="#ffff" opacity="1" data-original="#ffff" class=""></path></g></svg>