<svg xmlns="http://www.w3.org/2000/svg" version="1.1" xmlns:xlink="http://www.w3.org/1999/xlink" width="512" height="512" x="0" y="0" viewBox="0 0 512 512" style="enable-background:new 0 0 512 512" xml:space="preserve" class=""><g transform="matrix(1.06,0,0,1.06,-15.359997367858853,-15.360003662109307)"><path d="M456 24h-24a8 8 0 0 0-8 8v32H88V32a8 8 0 0 0-8-8H56a40.046 40.046 0 0 0-40 40v272a40.046 40.046 0 0 0 40 40h16v-16H56a24 24 0 0 1 0-48h24a8 8 0 0 0 8-8V80h336v224a8 8 0 0 0 8 8h24a24 24 0 0 1 0 48h-32v16h32a40.046 40.046 0 0 0 40-40V64a40.046 40.046 0 0 0-40-40ZM72 296H56a39.795 39.795 0 0 0-24 8.019V64a24.027 24.027 0 0 1 24-24h16Zm384 0h-16V40h16a24.027 24.027 0 0 1 24 24v240.019A39.795 39.795 0 0 0 456 296Z" fill="#ffff" opacity="1" data-original="#ffff" class=""></path><path d="M176 240a86.993 86.993 0 0 0 14.656 48.407L208 314.422V376a7.954 7.954 0 0 0 .85 3.575l-.005.003 16 32A7.999 7.999 0 0 0 232 416h48a7.999 7.999 0 0 0 7.155-4.422l16-32-.006-.003A7.954 7.954 0 0 0 304 376v-61.578l17.344-26.015A86.993 86.993 0 0 0 336 240a80 80 0 0 0-160 0Zm59.951 10.963 15.25 11.437a7.998 7.998 0 0 0 9.599 0l15.249-11.437L265.44 304H246.56ZM288 320v48h-64v-48Zm-12.944 80h-38.112l-8-16h54.112ZM256 176a64.072 64.072 0 0 1 64 64 71.042 71.042 0 0 1-11.969 39.532L291.72 304h-9.96l14.086-70.431A8 8 0 0 0 283.2 225.6L256 246l-27.2-20.4a8 8 0 0 0-12.645 7.969L230.241 304h-9.96l-16.312-24.468A71.042 71.042 0 0 1 192 240a64.072 64.072 0 0 1 64-64ZM16 463.03A25 25 0 0 0 40.97 488H160a32.036 32.036 0 0 0 32-32V350.627a30.627 30.627 0 0 0-52.284-21.656L23.313 445.373A24.809 24.809 0 0 0 16 463.029Zm135.03-122.746A14.627 14.627 0 0 1 176 350.627V360h-16v16h16v16h-16v16h16v16h-16v16h16v16a16.018 16.018 0 0 1-16 16h-16v-16h-16v16h-16v-16H96v16H80v-16H64v16H40.97a8.97 8.97 0 0 1-6.342-15.314Z" fill="#ffff" opacity="1" data-original="#ffff" class=""></path><path d="M96 440h40a8 8 0 0 0 8-8v-40a8 8 0 0 0-13.657-5.657l-40 40A8 8 0 0 0 96 440Zm32-28.687V424h-12.687ZM344 264v176a8.006 8.006 0 0 0 1.14 4.116l24 40a8 8 0 0 0 13.72 0l24-40A8.006 8.006 0 0 0 408 440V264a8 8 0 0 0-8-8h-48a8 8 0 0 0-8 8Zm40 168V328h8v104Zm-24 0V328h8v104Zm0-120v-8h32v8Zm16 152.45L366.13 448h19.74ZM392 272v16h-32v-16ZM165.49 152.804l11.314-11.314 16.97 16.97-11.313 11.314zM248 112h16v24h-16zM318.225 158.461l16.97-16.971 11.314 11.313-16.97 16.972zM352 224h24v16h-24zM136 224h24v16h-24z" fill="#ffff" opacity="1" data-original="#ffff" class=""></path></g></svg>