<svg xmlns="http://www.w3.org/2000/svg" xml:space="preserve" width="512" height="512" viewBox="0 0 32 32"><path d="M3.52 23.28h8.32a1.04 1.04 0 0 0 0-2.08H3.52a1.04 1.04 0 0 1-1.04-1.04V7.41l9.864 5.756a3.16 3.16 0 0 0 3.144 0l9.872-5.76v5.474a1.04 1.04 0 0 0 2.08 0V5.6a3.123 3.123 0 0 0-3.12-3.12H3.52A3.186 3.186 0 0 0 .4 5.6v14.56a3.123 3.123 0 0 0 3.12 3.12m0-18.72h20.8a1.03 1.03 0 0 1 .886.528L14.44 11.371a1.04 1.04 0 0 1-1.046 0L2.632 5.093a1.03 1.03 0 0 1 .888-.533" data-original="#000000"/><path d="M12.887 28.486a1.04 1.04 0 0 0 .712.986 1.09 1.09 0 0 0 1.16-.362 9.4 9.4 0 0 1 7.488-3.744v3.12a1.052 1.052 0 0 0 1.716.79l7.28-6.24a1.052 1.052 0 0 0 0-1.58l-7.28-6.24a1.05 1.05 0 0 0-1.716.79v3.12a9.37 9.37 0 0 0-9.36 9.36m2.78-3.111a7.29 7.29 0 0 1 6.58-4.169h1.04a1.04 1.04 0 0 0 1.04-1.04v-1.9l4.643 3.98-4.643 3.98v-1.9a1.04 1.04 0 0 0-1.04-1.04h-1.04a11.5 11.5 0 0 0-6.58 2.089" data-original="#000000"/></svg>